<?xml version="1.0" encoding="iso-8859-1"?>
<!-- Generator: Adobe Illustrator 19.0.0, SVG Export Plug-In . SVG Version: 6.00 Build 0)  -->
<svg version="1.1" id="Layer_1" xmlns="http://www.w3.org/2000/svg" xmlns:xlink="http://www.w3.org/1999/xlink" x="0px" y="0px"
	 viewBox="0 0 512.001 512.001" style="enable-background:new 0 0 512.001 512.001;" xml:space="preserve">
<g>
	<g>
		<g>
			<path d="M311.818,240.194c-3.666-6.348-10.437-10.258-17.767-10.258h-76.101c-7.33,0-14.103,3.91-17.767,10.258l-38.05,65.906
				c-3.666,6.348-3.666,14.168,0,20.516l38.05,65.904c3.666,6.348,10.437,10.258,17.767,10.258h76.101
				c7.33,0,14.103-3.91,17.767-10.258l38.049-65.904c3.666-6.348,3.666-14.168,0-20.516L311.818,240.194z M282.207,361.745h-52.41
				l-26.206-45.388l26.206-45.39h52.41l26.204,45.39L282.207,361.745z"/>
			<path d="M427.045,159.65v-14.992c18.739-7.813,31.946-26.318,31.946-47.854c0-28.576-23.249-51.825-51.825-51.825H197.478
				l-38.97-38.97c-8.011-8.012-21.002-8.012-29.014,0c-8.012,8.011-8.012,21.002,0,29.014l9.956,9.956h-34.617
				c-28.576,0-51.824,23.249-51.824,51.825c0,21.536,13.207,40.04,31.946,47.854v14.992
				C38.487,205.375,12.015,268.26,12.015,333.631c0,65.076,25.318,126.282,71.288,172.346c3.847,3.856,9.074,6.023,14.521,6.023
				h316.353c5.448,0,10.674-2.168,14.521-6.023c45.97-46.064,71.288-107.27,71.288-172.346
				C499.986,268.26,473.514,205.375,427.045,159.65z M104.833,86.011h302.334c14.136,0,14.681,21.584-0.639,21.584H105.472h-0.639
				c-5.951,0-10.791-4.842-10.791-10.793C94.042,90.851,98.884,86.011,104.833,86.011z M405.432,470.969H106.57
				c-34.581-37.55-53.524-85.995-53.524-137.337c0-56.935,24.146-111.609,66.25-150.004c8.263-7.536,6.692-15.027,6.692-35h260.025
				c0,19.65-1.659,27.385,6.692,35c42.103,38.395,66.25,93.069,66.25,150.004C458.954,384.974,440.012,433.419,405.432,470.969z"/>
		</g>
	</g>
</g>
<g>
</g>
<g>
</g>
<g>
</g>
<g>
</g>
<g>
</g>
<g>
</g>
<g>
</g>
<g>
</g>
<g>
</g>
<g>
</g>
<g>
</g>
<g>
</g>
<g>
</g>
<g>
</g>
<g>
</g>
</svg>
